{"title":"Murder.by.Numbers.2002.720p.x264.luckydag","uid":11208957,"size":1482047488,"categoryP":"video","categoryS":"hd___movies","magnet":"?xt=urn:btih:24998031fb8fe6e4cbf4e818117218d18713912d&amp;dn=Murder.by.Numbers.2002.720p.x264.luckydag&amp;tr=udp%3A%2F%2Ftracker.openbittorrent.com%3A80&amp;tr=udp%3A%2F%2Fopen.demonii.com%3A1337&amp;tr=udp%3A%2F%2Ftracker.coppersurfer.tk%3A6969&amp;tr=udp%3A%2F%2Fexodus.desync.com%3A6969","seeders":0,"leechers":3,"uploader":"luckydag","files":5,"time":1413252861,"description":"General\nComplete name                  : Murder.by.Numbers.2002.720p.x264.luckydag.mp4\nFormat                         : MPEG-4\nFormat profile                 : Base Media\nCodec ID                       : isom\nFile size                      : 1.37 GiB\nDuration                       : 2h 0mn\nOverall bit rate mode          : Variable\nOverall bit rate               : 1 629 Kbps\nEncoded date                   : UTC 2014-10-11 14:34:39\nTagged date                    : UTC 2014-10-11 14:34:39\n\nVideo\nID                             : 1\nFormat                         : AVC\nFormat/Info                    : Advanced Video Codec\nFormat profile                 : &lt;a class=&quot;__cf_email__&quot; href=&quot;/cdn-cgi/l/email-protection&quot; data-cfemail=&quot;abe3c2ccc3ebe79f859b&quot;&gt;[email&amp;#160;protected]&lt;/a&gt;&lt;script cf-hash='f9e31' type=&quot;text/javascript&quot;&gt;\n/* &lt;![CDATA[ */!function(){try{var t=&quot;currentScript&quot;in document?document.currentScript:function(){for(var t=document.getElementsByTagName(&quot;script&quot;),e=t.length;e--;)if(t[e].getAttribute(&quot;cf-hash&quot;))return t[e]}();if(t&amp;&amp;t.previousSibling){var e,r,n,i,c=t.previousSibling,a=c.getAttribute(&quot;data-cfemail&quot;);if(a){for(e=&quot;&quot;,r=parseInt(a.substr(0,2),16),n=2;a.length-n;n+=2)i=parseInt(a.substr(n,2),16)^r,e+=String.fromCharCode(i);e=document.createTextNode(e),c.parentNode.replaceChild(e,c)}}}catch(u){}}();/* ]]&gt; */&lt;/script&gt;\nFormat settings, CABAC         : Yes\nFormat settings, ReFrames      : 8 frames\nCodec ID                       : avc1\nCodec ID/Info                  : Advanced Video Coding\nDuration                       : 2h 0mn\nBit rate                       : 1 500 Kbps\nMaximum bit rate               : 7 794 Kbps\nWidth                          : 1 270 pixels\nHeight                         : 720 pixels\nDisplay aspect ratio           : 16:9\nFrame rate mode                : Constant\nFrame rate                     : 23.976 fps\nColor space                    : YUV\nChroma subsampling             : 4:2:0\nBit depth                      : 8 bits\nScan type                      : Progressive\nBits/(Pixel*Frame)             : 0.068\nStream size                    : 1.26 GiB (92%)\nWriting library                : x264 core 142 r2479kMod dd79a61\nEncoding settings              : cabac=1 / ref=8 / deblock=1:0:0 / \n\nAudio\nID                             : 2\nFormat                         : AAC\nFormat/Info                    : Advanced Audio Codec\nFormat profile                 : LC\nCodec ID                       : 40\nDuration                       : 2h 0mn\nBit rate mode                  : Variable\nBit rate                       : 125 Kbps\nMaximum bit rate               : 171 Kbps\nChannel(s)                     : 2 channels\nChannel positions              : Front: L R\nSampling rate                  : 48.0 KHz\nCompression mode               : Lossy\nStream size                    : 108 MiB (8%)\nTitle                          : &lt;a class=&quot;__cf_email__&quot; href=&quot;/cdn-cgi/l/email-protection&quot; data-cfemail=&quot;f5949496d69480919c9ab5b2a5b4b6c5dbc0dbc4d8b1b0a3d8879083c0c6c3c3&quot;&gt;[email&amp;#160;protected]&lt;/a&gt;&lt;script cf-hash='f9e31' type=&quot;text/javascript&quot;&gt;\n/* &lt;![CDATA[ */!function(){try{var t=&quot;currentScript&quot;in document?document.currentScript:function(){for(var t=document.getElementsByTagName(&quot;script&quot;),e=t.length;e--;)if(t[e].getAttribute(&quot;cf-hash&quot;))return t[e]}();if(t&amp;&amp;t.previousSibling){var e,r,n,i,c=t.previousSibling,a=c.getAttribute(&quot;data-cfemail&quot;);if(a){for(e=&quot;&quot;,r=parseInt(a.substr(0,2),16),n=2;a.length-n;n+=2)i=parseInt(a.substr(n,2),16)^r,e+=String.fromCharCode(i);e=document.createTextNode(e),c.parentNode.replaceChild(e,c)}}}catch(u){}}();/* ]]&gt; */&lt;/script&gt;\nEncoded date                   : UTC 2014-10-11 14:35:04\nTagged date                    : UTC 2014-10-11 14:35:18","torrent":{"xt":"urn:btih:24998031fb8fe6e4cbf4e818117218d18713912d","amp;dn":"Murder.by.Numbers.2002.720p.x264.luckydag","amp;tr":["udp%3A%2F%2Ftracker.openbittorrent.com%3A80","udp%3A%2F%2Fopen.demonii.com%3A1337","udp%3A%2F%2Ftracker.coppersurfer.tk%3A6969","udp%3A%2F%2Fexodus.desync.com%3A6969"],"infoHash":"24998031fb8fe6e4cbf4e818117218d18713912d","infoHashBuffer":{"type":"Buffer","data":[36,153,128,49,251,143,230,228,203,244,232,24,17,114,24,209,135,19,145,45]},"announce":[],"urlList":[]}}